<svg xmlns="http://www.w3.org/2000/svg" width="52.902" height="52.131" viewBox="0 0 52.902 52.131">
  <g id="ai-assistant_18140281" transform="translate(-2.5 -2.85)">
    <g id="Grupo_1179117" data-name="Grupo 1179117" transform="translate(2.5 2.85)">
      <path id="Trazado_1044875" data-name="Trazado 1044875" d="M54.577,38.272c-1.842-1.655-4.18-2.029-6.988-1.1l-8.011,3.084q.015-.167.016-.339a3.674,3.674,0,0,0-3.669-3.671H29.94a1.682,1.682,0,0,1-1.314-.6,9.311,9.311,0,0,0-5.116-3.273,9.931,9.931,0,0,0-2.311-.258H12.265a4.156,4.156,0,0,0-4.071-3.353H4.435A1.937,1.937,0,0,0,2.5,30.7V49.821a1.937,1.937,0,0,0,1.935,1.935H8.194A4.143,4.143,0,0,0,12.3,48.061l11.324,3.52a16.624,16.624,0,0,0,11.862-.753L53.95,42.39a2.492,2.492,0,0,0,.627-4.117ZM10.692,47.6a2.5,2.5,0,0,1-2.5,2.5H4.435a.282.282,0,0,1-.281-.281V30.7a.282.282,0,0,1,.281-.281H8.194a2.5,2.5,0,0,1,2.5,2.5V47.6Zm42.57-6.718L34.8,49.325A14.972,14.972,0,0,1,24.115,50L12.346,46.344V33.767H21.2a8.272,8.272,0,0,1,1.925.213,7.586,7.586,0,0,1,4.221,2.711A3.33,3.33,0,0,0,29.94,37.9h5.985a2.018,2.018,0,0,1,0,4.037H22.01a.827.827,0,0,0,0,1.653H35.921a3.663,3.663,0,0,0,2.711-1.2l9.514-3.664c2.2-.728,3.939-.474,5.327.772a.838.838,0,0,1-.209,1.384Z" transform="translate(-2.5 -0.204)" fill="#108d93"/>
      <path id="Trazado_1044876" data-name="Trazado 1044876" d="M26.2,21.181a.77.77,0,0,0,.281-.33L27.246,19H31.27l.772,1.852a.753.753,0,0,0,1.212.232.728.728,0,0,0,.126-.828L30.2,12.742a.942.942,0,0,0-.875-.61h-.125a.944.944,0,0,0-.876.612l-3.184,7.517a.819.819,0,0,0-.075.313.717.717,0,0,0,.2.514.749.749,0,0,0,.934.092Zm1.624-3.543,1.437-3.461L30.7,17.638Z" transform="translate(-0.196 -1.902)" fill="#108d93"/>
      <path id="Trazado_1044877" data-name="Trazado 1044877" d="M34.77,21.3a.727.727,0,0,0,.74-.727v-7.7a.717.717,0,0,0-.217-.523.734.734,0,0,0-1.041,0,.726.726,0,0,0-.209.52v7.7A.717.717,0,0,0,34.77,21.3Z" transform="translate(0.722 -1.902)" fill="#108d93"/>
      <path id="Trazado_1044878" data-name="Trazado 1044878" d="M17.6,22.835a.827.827,0,0,0,0,1.653h2.56V25.4a3.7,3.7,0,0,0,3.691,3.692h.915v2.56a.827.827,0,1,0,1.653,0v-2.56h4.342v2.56a.827.827,0,0,0,1.653,0v-2.56h4.343v2.56a.827.827,0,1,0,1.653,0v-2.56h.915A3.7,3.7,0,0,0,43.018,25.4v-.915h2.56a.827.827,0,0,0,0-1.653h-2.56V18.492h2.56a.827.827,0,0,0,0-1.653h-2.56V12.5h2.56a.827.827,0,0,0,0-1.653h-2.56V9.928a3.7,3.7,0,0,0-3.691-3.691h-.915V3.677a.827.827,0,1,0-1.653,0v2.56H32.416V3.677a.827.827,0,0,0-1.653,0v2.56H26.42V3.677a.827.827,0,0,0-1.653,0v2.56h-.915a3.7,3.7,0,0,0-3.691,3.691v.915H17.6a.827.827,0,0,0,0,1.653h2.56v4.342H17.6a.827.827,0,1,0,0,1.653h2.56v4.342ZM21.814,9.928A2.04,2.04,0,0,1,23.852,7.89H39.327a2.04,2.04,0,0,1,2.038,2.038V25.4a2.041,2.041,0,0,1-2.038,2.039H23.852A2.041,2.041,0,0,1,21.814,25.4Z" transform="translate(-1.042 -2.85)" fill="#108d93"/>
    </g>
  </g>
</svg>
