<svg xmlns="http://www.w3.org/2000/svg" width="50.842" height="50.842" viewBox="0 0 50.842 50.842">
  <g id="forward" transform="translate(-2.25 -2.25)">
    <g id="Grupo_1179119" data-name="Grupo 1179119" transform="translate(3 3)">
      <path id="Trazado_1044882" data-name="Trazado 1044882" d="M7,26.059V16.7A1.7,1.7,0,0,1,8.7,15H19.761a1.7,1.7,0,0,1,1.7,1.7v1.7a1.7,1.7,0,0,0,1.7,1.7H51.237a1.7,1.7,0,0,1,1.7,1.7V47.327a1.7,1.7,0,0,1-1.7,1.7h-5.1" transform="translate(-3.597 -4.791)" fill="none" stroke="#108d93" stroke-linecap="round" stroke-linejoin="round" stroke-width="1.5"/>
      <path id="Trazado_1044883" data-name="Trazado 1044883" d="M56.1,20.254V17.7A1.7,1.7,0,0,0,54.4,16H51" transform="translate(-10.165 -4.941)" fill="none" stroke="#108d93" stroke-linecap="round" stroke-linejoin="round" stroke-width="1.5"/>
      <path id="Trazado_1044884" data-name="Trazado 1044884" d="M7,32v.851" transform="translate(-3.597 -7.329)" fill="none" stroke="#108d93" stroke-linecap="round" stroke-linejoin="round" stroke-width="1.5"/>
      <path id="Trazado_1044885" data-name="Trazado 1044885" d="M6.4,33.119V46.73a1.7,1.7,0,0,1-3.4,0V12.7A1.7,1.7,0,0,1,4.7,11h6.806" transform="translate(-3 -4.194)" fill="none" stroke="#108d93" stroke-linecap="round" stroke-linejoin="round" stroke-width="1.5"/>
      <path id="Trazado_1044886" data-name="Trazado 1044886" d="M12.4,6.4H9V4.7a1.7,1.7,0,1,1,3.4,0v8.507" transform="translate(-3.896 -3)" fill="none" stroke="#108d93" stroke-linecap="round" stroke-linejoin="round" stroke-width="1.5"/>
      <path id="Trazado_1044887" data-name="Trazado 1044887" d="M45.029,18.313V4.7a1.7,1.7,0,0,0-1.7-1.7H11" transform="translate(-4.194 -3)" fill="none" stroke="#108d93" stroke-linecap="round" stroke-linejoin="round" stroke-width="1.5"/>
      <path id="Trazado_1044888" data-name="Trazado 1044888" d="M27.119,55H5" transform="translate(-3.299 -10.763)" fill="none" stroke="#108d93" stroke-linecap="round" stroke-linejoin="round" stroke-width="1.5"/>
    </g>
    <path id="Trazado_1044889" data-name="Trazado 1044889" d="M46,7h.851" transform="translate(-6.419 -0.597)" fill="none" stroke="#108d93" stroke-linecap="round" stroke-miterlimit="10" stroke-width="1.5"/>
    <path id="Trazado_1044890" data-name="Trazado 1044890" d="M41,7h.851" transform="translate(-5.673 -0.597)" fill="none" stroke="#108d93" stroke-linecap="round" stroke-miterlimit="10" stroke-width="1.5"/>
    <circle id="Elipse_11815" data-name="Elipse 11815" cx="11" cy="11" r="11" transform="translate(25.342 30.342)" fill="none" stroke="#108d93" stroke-linecap="round" stroke-linejoin="round" stroke-width="1.5"/>
    <path id="Trazado_1044891" data-name="Trazado 1044891" d="M34.7,48.656a1.7,1.7,0,0,1,0-3.4h7.656V41l5.955,5.955L42.358,52.91V48.656Z" transform="translate(-4.478 -5.673)" fill="none" stroke="#108d93" stroke-linecap="round" stroke-linejoin="round" stroke-width="1.5"/>
  </g>
</svg>
